<svg width="50" height="50" viewBox="0 0 50 50" fill="none" xmlns="http://www.w3.org/2000/svg">
<path d="M45 0H5C2.23858 0 0 2.23858 0 5V45C0 47.7614 2.23858 50 5 50H45C47.7614 50 50 47.7614 50 45V5C50 2.23858 47.7614 0 45 0Z" fill="#663399"/>
<path d="M37.5715 25H29.5715V27.2857H35.0572C34.2572 30.7142 31.7429 33.5714 28.4286 34.7142L15.2858 21.5714C16.6572 17.5714 20.5429 14.7142 25.0001 14.7142C28.4286 14.7142 31.5144 16.4285 33.4572 19.0571L35.1715 17.5714C32.8858 14.4857 29.2286 12.4285 25.0001 12.4285C19.0572 12.4285 14.0286 16.6571 12.7715 22.2571L27.8572 37.3428C33.3429 35.9714 37.5715 30.9428 37.5715 25Z" fill="white"/>
<path d="M12.4286 25.1143C12.4286 28.3143 13.6858 31.4 16.0858 33.8C18.4858 36.2 21.6858 37.4571 24.7715 37.4571L12.4286 25.1143Z" fill="white"/>
<path d="M25 9C16.2 9 9 16.2 9 25C9 33.8 16.2 41 25 41C33.8 41 41 33.8 41 25C41 16.2 33.8 9 25 9ZM16.0857 33.9143C13.6857 31.5143 12.4286 28.3143 12.4286 25.2286L24.8857 37.5714C21.6857 37.4571 18.4857 36.3143 16.0857 33.9143ZM27.7429 37.2286L12.7714 22.2571C14.0286 16.6571 19.0571 12.4286 25 12.4286C29.2286 12.4286 32.8857 14.4857 35.1714 17.5714L33.4571 19.0571C31.5143 16.4286 28.4286 14.7143 25 14.7143C20.5429 14.7143 16.7714 17.5714 15.2857 21.5714L28.4286 34.7143C31.7429 33.5714 34.2571 30.7143 35.0571 27.2857H29.5714V25H37.5714C37.5714 30.9429 33.3429 35.9714 27.7429 37.2286Z" fill="#663399"/>
</svg>
