<svg width="1078" height="125" viewBox="0 0 1078 125" fill="none" xmlns="http://www.w3.org/2000/svg">
<path d="M58.7084 124.027C55.0222 115.056 51.336 106.139 47.6498 97.2763C44.072 88.4133 40.44 79.5504 36.7538 70.6874C35.8864 68.6338 34.748 65.7696 33.3386 62.0947C32.0376 58.3117 30.6281 53.9883 29.1103 49.1245C27.7008 44.2607 26.3998 39.2348 25.2072 34.0467C25.4241 40.0994 25.5867 45.8279 25.6951 51.2322C25.8035 56.5283 25.8035 61.6083 25.6951 66.4721C25.6951 71.3359 25.6409 76.2538 25.5325 81.2257C25.5325 86.0895 25.5325 90.9533 25.5325 95.8171C25.5325 98.7354 25.4241 101.546 25.2072 104.248C25.0988 106.95 24.9362 109.003 24.7193 110.409C26.5624 110.192 28.785 110.084 31.3871 110.084C34.0975 109.976 35.9948 109.922 37.079 109.922V122.406H0V111.706C2.49362 111.598 4.55356 111.273 6.17983 110.733C7.91453 110.192 9.21554 108.949 10.0829 107.004C11.0587 105.058 11.5465 101.924 11.5465 97.6005L12.5223 35.5058C12.6307 32.5876 12.7391 29.7774 12.8476 27.0752C12.956 24.3731 13.0644 22.3195 13.1728 20.9144C11.4381 21.0225 9.26975 21.1306 6.66772 21.2387C4.06568 21.2387 2.16836 21.2927 0.975763 21.4008V8.91699H36.9164L61.4731 71.6602C62.4489 74.1461 63.533 77.0644 64.7256 80.4151C65.9182 83.6576 67.0566 86.8461 68.1408 89.9806C69.225 93.0069 70.0381 95.4388 70.5802 97.2763H70.7429C72.1523 93.4933 73.4533 89.8184 74.6459 86.2516C75.8385 82.6848 77.0853 79.2261 78.3863 75.8755C82.6146 64.6347 86.7887 53.4479 90.9086 42.3152C95.1369 31.1825 99.3652 20.0497 103.594 8.91699H141.16V19.6174C138.775 19.7255 136.661 20.0497 134.818 20.5901C132.975 21.1306 131.565 22.3735 130.59 24.3191C129.722 26.1565 129.343 29.291 129.451 33.7224L131.891 95.8171C132.108 98.7354 132.108 101.546 131.891 104.248C131.674 106.95 131.457 109.003 131.24 110.409C133.083 110.192 135.306 110.084 137.908 110.084C140.618 109.976 142.516 109.922 143.6 109.922V122.406H98.3895V111.706C100.883 111.598 102.997 111.273 104.732 110.733C106.575 110.192 107.93 108.949 108.798 107.004C109.773 105.058 110.153 101.924 109.936 97.6005L108.635 63.2296C108.635 61.9326 108.527 59.7168 108.31 56.5824C108.093 53.3398 107.876 49.8271 107.659 46.0441C107.551 42.1531 107.442 38.5322 107.334 35.1816C107.009 35.9382 106.683 36.6948 106.358 37.4514C106.033 38.0999 105.762 38.8024 105.545 39.559L73.8328 124.027H58.7084Z" fill="url(#paint0_linear)"/>
<path d="M155.616 111.868C160.062 111.868 162.772 110.571 163.748 107.977C164.724 105.275 165.211 101.762 165.211 97.4384V70.5253C165.211 68.5798 165.266 66.364 165.374 63.8781C165.483 61.284 165.645 58.7981 165.862 56.4202C164.127 56.5283 162.067 56.6364 159.682 56.7445C157.405 56.7445 155.671 56.7985 154.478 56.9066V44.585C161.959 44.585 167.705 44.0445 171.717 42.9637C175.836 41.8828 178.438 40.802 179.523 39.7211H188.305V96.3035C188.305 97.8167 188.25 99.9784 188.142 102.789C188.033 105.491 187.871 108.085 187.654 110.571C189.389 110.355 191.286 110.246 193.346 110.246C195.514 110.138 197.141 110.084 198.225 110.084V122.406H155.616V111.868ZM175.945 26.9131C172.259 26.9131 169.223 25.6161 166.838 23.0221C164.453 20.428 163.26 17.2936 163.26 13.6187C163.26 9.9438 164.507 6.80934 167 4.21531C169.494 1.62128 172.421 0.32426 175.782 0.32426C179.252 0.32426 182.125 1.62128 184.401 4.21531C186.787 6.80934 187.979 9.9438 187.979 13.6187C187.979 17.2936 186.895 20.428 184.727 23.0221C182.558 25.6161 179.631 26.9131 175.945 26.9131Z" fill="url(#paint1_linear)"/>
<path d="M247.2 125C239.936 125 233.268 123.379 227.197 120.136C221.125 116.894 216.246 112.192 212.56 106.031C208.982 99.8703 207.193 92.4125 207.193 83.6576C207.193 75.4432 208.982 67.9853 212.56 61.2841C216.138 54.4747 221.071 49.0164 227.359 44.9092C233.756 40.802 241.128 38.7484 249.477 38.7484C256.415 38.7484 262.161 39.8292 266.715 41.9909C271.377 44.0445 274.846 46.8007 277.123 50.2594C279.508 53.61 280.701 57.1768 280.701 60.9598C280.701 64.0943 279.725 66.9045 277.774 69.3904C275.931 71.7683 273.274 73.0112 269.805 73.1193C265.685 73.2274 262.812 72.0925 261.186 69.7147C259.559 67.2287 258.746 64.8508 258.746 62.5811C258.746 61.6083 258.909 60.4734 259.234 59.1764C259.559 57.7713 260.047 56.5283 260.698 55.4475C259.505 53.0696 257.608 51.5564 255.006 50.9079C252.404 50.2594 250.344 49.9892 248.826 50.0973C243.622 50.4215 239.339 53.0156 235.978 57.8794C232.617 62.7432 230.937 69.7687 230.937 78.9559C230.937 84.3601 231.588 89.4401 232.889 94.1959C234.298 98.8435 236.575 102.681 239.719 105.707C242.863 108.733 247.091 110.355 252.404 110.571C256.957 110.679 261.402 109.598 265.739 107.328C270.076 105.058 273.762 101.978 276.798 98.0869L284.279 105.383C280.376 110.787 276.31 114.894 272.082 117.704C267.853 120.514 263.625 122.406 259.397 123.379C255.277 124.46 251.211 125 247.2 125Z" fill="url(#paint2_linear)"/>
<path d="M338.202 122.406C337.986 120.893 337.823 119.65 337.715 118.677C337.715 117.596 337.66 116.353 337.552 114.948C333.866 118.623 329.963 121.217 325.843 122.73C321.723 124.243 317.549 125 313.32 125C306.382 125 300.961 122.946 297.058 118.839C293.155 114.732 291.203 109.598 291.203 103.437C291.203 98.249 292.504 93.8176 295.106 90.1427C297.817 86.4678 301.34 83.4955 305.677 81.2257C310.122 78.8478 315.001 77.0644 320.313 75.8755C325.734 74.5785 331.155 73.8219 336.576 73.6057V65.1751C336.576 60.9598 335.709 57.393 333.974 54.4747C332.348 51.5564 329.312 50.2054 324.867 50.4215C320.313 50.6377 316.627 52.1509 313.808 54.9611C314.676 55.9339 315.218 57.0147 315.435 58.2036C315.651 59.2845 315.76 60.2572 315.76 61.1219C315.76 63.2836 314.892 65.5534 313.158 67.9313C311.423 70.201 308.658 71.2819 304.864 71.1738C301.611 71.0657 299.118 69.9308 297.383 67.7691C295.648 65.6074 294.781 63.0675 294.781 60.1492C294.781 55.8258 296.299 52.0968 299.334 48.9624C302.479 45.7199 306.653 43.2339 311.857 41.5045C317.061 39.6671 322.807 38.7484 329.095 38.7484C338.636 38.7484 346.008 41.2343 351.213 46.2062C356.525 51.07 359.181 58.9062 359.181 69.7147C359.181 73.3895 359.181 76.524 359.181 79.118C359.181 81.7121 359.127 84.3061 359.019 86.9001C359.019 89.4942 359.019 92.6286 359.019 96.3035C359.019 97.8167 358.964 99.9784 358.856 102.789C358.748 105.491 358.585 108.085 358.368 110.571C360.211 110.355 362.163 110.246 364.223 110.246C366.283 110.138 367.855 110.084 368.939 110.084V122.406H338.202ZM336.413 85.1167C330.342 85.6572 325.084 87.2244 320.639 89.8184C316.302 92.4125 314.188 96.0333 314.296 100.681C314.405 103.707 315.38 105.869 317.223 107.166C319.067 108.463 321.181 109.112 323.566 109.112C326.06 109.112 328.391 108.571 330.559 107.49C332.727 106.409 334.679 105.004 336.413 103.275V85.1167Z" fill="url(#paint3_linear)"/>
<path d="M416.819 125C408.904 125 401.911 123.271 395.84 119.812C389.768 116.245 385.052 111.273 381.691 104.896C378.33 98.4112 376.65 90.7912 376.65 82.0363C376.65 74.4704 378.33 67.3908 381.691 60.7977C385.052 54.2045 389.768 48.9084 395.84 44.9092C402.02 40.802 409.175 38.7484 417.307 38.7484C421.86 38.7484 426.305 39.3969 430.642 40.6939C434.979 41.8828 438.882 43.9905 442.351 47.0169C445.929 50.0432 448.748 54.1505 450.808 59.3385C452.976 64.5266 454.006 71.0117 453.898 78.7938L400.556 79.7665C400.556 85.6031 401.261 90.8452 402.67 95.4929C404.188 100.141 406.627 103.815 409.988 106.518C413.349 109.22 417.849 110.571 423.486 110.571C426.739 110.571 430.588 109.706 435.033 107.977C439.586 106.139 443.706 102.951 447.393 98.4112L454.711 105.22C450.808 110.733 446.634 114.948 442.189 117.866C437.743 120.677 433.298 122.568 428.853 123.541C424.516 124.514 420.505 125 416.819 125ZM401.532 68.4176H431.455C431.347 61.7164 430.046 57.0147 427.552 54.3126C425.058 51.5024 421.914 50.0973 418.12 50.0973C413.349 50.0973 409.609 51.8266 406.898 55.2853C404.188 58.636 402.399 63.0134 401.532 68.4176Z" fill="url(#paint4_linear)"/>
<path d="M463.181 111.868C467.735 111.868 470.445 110.571 471.313 107.977C472.289 105.275 472.776 101.762 472.776 97.4384V30.8042C472.776 28.8586 472.831 26.6429 472.939 24.1569C473.047 21.5629 473.21 19.077 473.427 16.6991C471.692 16.8072 469.632 16.9153 467.247 17.0233C464.97 17.0233 463.236 17.0774 462.043 17.1855V4.86382C469.632 4.86382 475.433 4.3234 479.444 3.24255C483.456 2.1617 486.003 1.08085 487.088 0H495.869V96.3035C495.869 97.8167 495.815 99.9784 495.707 102.789C495.598 105.491 495.436 108.085 495.219 110.571C497.062 110.355 499.014 110.246 501.074 110.246C503.133 110.138 504.706 110.084 505.79 110.084V122.406H463.181V111.868Z" fill="url(#paint5_linear)"/>
<path d="M613.647 125C601.938 125 591.964 122.46 583.724 117.38C575.484 112.192 569.196 105.22 564.859 96.4656C560.522 87.7108 558.354 77.9831 558.354 67.2828C558.354 59.933 559.492 52.6373 561.769 45.3956C564.154 38.1539 567.678 31.6148 572.34 25.7782C577.002 19.8336 582.856 15.1319 589.904 11.6732C597.059 8.10636 605.353 6.32296 614.786 6.32296C617.713 6.32296 621.02 6.64722 624.706 7.29572C628.392 7.83615 632.078 8.70083 635.764 9.88976C639.559 11.0787 642.92 12.5378 645.847 14.2672L645.197 7.45785H657.719V45.2335H647.148C645.739 36.2624 642.27 29.5071 636.74 24.9676C631.211 20.428 624.597 18.1042 616.9 17.9961C611.262 17.9961 606.329 19.2931 602.101 21.8872C597.981 24.4812 594.566 27.9399 591.855 32.2633C589.145 36.5867 587.085 41.5045 585.675 47.0169C584.374 52.5292 583.724 58.2036 583.724 64.0402C583.724 73.3355 585.025 81.604 587.627 88.8457C590.229 96.0873 594.023 101.816 599.011 106.031C604.106 110.138 610.34 112.192 617.713 112.192C619.773 112.192 622.212 112.03 625.031 111.706C627.85 111.381 630.669 110.895 633.488 110.246C636.307 109.598 638.692 108.787 640.643 107.815V92.7367C640.643 89.8184 640.698 87.0082 640.806 84.3061C641.023 81.604 641.185 79.5504 641.294 78.1453C639.559 78.2534 637.391 78.3614 634.789 78.4695C632.187 78.4695 630.289 78.5236 629.097 78.6317V66.1479H672.356V76.8483C669.97 76.9563 667.965 77.3346 666.338 77.9831C664.712 78.6317 663.465 79.9287 662.598 81.8742C661.839 83.8197 661.46 86.8461 661.46 90.9533V116.894H657.557C654.412 116.894 651.268 117.326 648.124 118.191C644.98 119.055 641.619 120.028 638.041 121.109C634.68 122.082 630.994 122.946 626.983 123.703C622.971 124.568 618.526 125 613.647 125Z" fill="url(#paint6_linear)"/>
<path d="M721.616 125C713.81 125 706.763 123.325 700.475 119.974C694.187 116.623 689.199 111.868 685.513 105.707C681.935 99.438 680.146 92.0882 680.146 83.6576C680.146 74.6866 681.99 66.8504 685.676 60.1492C689.47 53.3398 694.458 48.0977 700.638 44.4228C706.926 40.6399 713.756 38.7484 721.129 38.7484C728.935 38.7484 735.928 40.4237 742.107 43.7743C748.287 47.125 753.166 51.9347 756.744 58.2036C760.322 64.3645 762.111 71.7683 762.111 80.4151C762.111 89.4942 760.376 97.3844 756.906 104.086C753.437 110.787 748.667 115.975 742.595 119.65C736.524 123.217 729.531 125 721.616 125ZM722.267 113.489C726.604 113.381 729.856 111.868 732.025 108.949C734.301 106.031 735.873 102.356 736.741 97.9248C737.608 93.4933 738.042 89.0078 738.042 84.4682C738.042 80.4691 737.716 76.4159 737.066 72.3087C736.524 68.2015 735.602 64.4726 734.301 61.1219C733 57.7713 731.211 55.0692 728.935 53.0156C726.766 50.962 724.056 49.9892 720.803 50.0973C716.575 50.2054 713.214 51.7186 710.72 54.6368C708.335 57.5551 706.6 61.23 705.516 65.6615C704.541 69.9849 704.053 74.5244 704.053 79.2802C704.053 84.7925 704.649 90.1967 705.842 95.4929C707.034 100.789 708.931 105.166 711.534 108.625C714.244 111.976 717.822 113.597 722.267 113.489Z" fill="url(#paint7_linear)"/>
<path d="M773.886 122.406V111.868C778.331 111.868 781.041 110.571 782.017 107.977C782.993 105.275 783.481 101.762 783.481 97.4384V70.201C783.481 68.2555 783.535 66.0938 783.643 63.716C783.752 61.23 783.914 58.7981 784.131 56.4202C782.397 56.5283 780.337 56.6364 777.951 56.7445C775.675 56.7445 773.94 56.7985 772.747 56.9066V44.585C780.228 44.585 785.974 44.0445 789.986 42.9637C794.106 41.8828 796.708 40.802 797.792 39.7211H805.761C805.978 40.802 806.086 42.1531 806.086 43.7743C806.194 45.3956 806.303 46.7467 806.411 47.8275C810.098 45.0173 814.055 42.8016 818.283 41.1803C822.62 39.559 826.685 38.7484 830.48 38.7484C835.467 38.7484 839.587 39.6671 842.84 41.5045C846.092 43.2339 848.694 45.882 850.646 49.4488C854.549 46.2062 858.831 43.6122 863.493 41.6667C868.264 39.7211 872.817 38.7484 877.154 38.7484C885.936 38.7484 892.549 41.2884 896.995 46.3684C901.548 51.3403 903.825 60.0411 903.825 72.4708V96.3035C903.825 97.8167 903.771 99.9784 903.662 102.789C903.554 105.491 903.391 108.085 903.174 110.571C904.909 110.355 906.806 110.246 908.866 110.246C911.035 110.138 912.661 110.084 913.745 110.084V122.406H872.601V111.868C876.395 111.868 878.672 110.571 879.431 107.977C880.298 105.275 880.732 101.762 880.732 97.4384V72.6329C880.623 65.6074 879.431 60.7436 877.154 58.0415C874.986 55.3394 872.058 53.9343 868.372 53.8262C865.553 53.7181 862.897 54.2045 860.404 55.2853C858.018 56.3662 855.85 57.6632 853.898 59.1764C854.874 63.4998 855.362 68.6338 855.362 74.5785V96.3035C855.362 97.8167 855.308 99.9784 855.199 102.789C855.091 105.491 854.928 108.085 854.712 110.571C856.446 110.355 858.344 110.246 860.404 110.246C862.463 110.138 864.09 110.084 865.282 110.084V122.406H823.324V111.868C827.444 111.868 829.938 110.571 830.805 107.977C831.781 105.275 832.269 101.762 832.269 97.4384L832.106 72.1466C832.106 65.1211 831.076 60.3113 829.016 57.7173C826.957 55.1232 824.083 53.7722 820.397 53.6641C817.687 53.6641 815.139 54.2585 812.754 55.4475C810.477 56.6364 808.417 58.0415 806.574 59.6628V96.3035C806.574 97.8167 806.52 99.9784 806.411 102.789C806.303 105.491 806.14 108.085 805.923 110.571C807.658 110.355 809.447 110.246 811.29 110.246C813.133 110.138 814.597 110.084 815.681 110.084V122.406H773.886Z" fill="url(#paint8_linear)"/>
<path d="M962.033 125C954.118 125 947.125 123.271 941.054 119.812C934.982 116.245 930.266 111.273 926.905 104.896C923.544 98.4112 921.864 90.7912 921.864 82.0363C921.864 74.4704 923.544 67.3908 926.905 60.7977C930.266 54.2045 934.982 48.9084 941.054 44.9092C947.234 40.802 954.389 38.7484 962.521 38.7484C967.074 38.7484 971.519 39.3969 975.856 40.6939C980.193 41.8828 984.096 43.9905 987.565 47.0169C991.143 50.0432 993.962 54.1505 996.022 59.3385C998.19 64.5266 999.22 71.0117 999.112 78.7938L945.77 79.7665C945.77 85.6031 946.475 90.8452 947.884 95.4929C949.402 100.141 951.841 103.815 955.202 106.518C958.563 109.22 963.063 110.571 968.701 110.571C971.953 110.571 975.802 109.706 980.247 107.977C984.801 106.139 988.921 102.951 992.607 98.4112L999.925 105.22C996.022 110.733 991.848 114.948 987.403 117.866C982.958 120.677 978.512 122.568 974.067 123.541C969.73 124.514 965.719 125 962.033 125ZM946.746 68.4176H976.669C976.561 61.7164 975.26 57.0147 972.766 54.3126C970.273 51.5024 967.128 50.0973 963.334 50.0973C958.563 50.0973 954.823 51.8266 952.113 55.2853C949.402 58.636 947.613 63.0134 946.746 68.4176Z" fill="url(#paint9_linear)"/>
<path d="M1048.4 125C1043.74 125 1039.19 124.406 1034.74 123.217C1030.3 122.028 1026.83 120.514 1024.33 118.677L1024.66 123.541H1012.3L1011.65 95.655H1022.22C1022.76 100.627 1025.36 104.842 1030.03 108.301C1034.69 111.652 1040.49 113.327 1047.43 113.327C1050.14 113.327 1052.68 112.678 1055.07 111.381C1057.45 110.084 1058.65 108.031 1058.65 105.22C1058.54 102.086 1056.86 99.7622 1053.61 98.249C1050.46 96.7358 1045.85 94.7903 1039.78 92.4125C1036.42 91.1154 1033.01 89.7644 1029.54 88.3593C1026.18 86.9542 1023.03 85.2789 1020.1 83.3333C1017.29 81.2797 1015.01 78.7938 1013.27 75.8755C1011.54 72.8491 1010.67 69.1742 1010.67 64.8508C1010.67 60.6355 1011.7 56.5283 1013.76 52.5292C1015.93 48.5301 1019.29 45.2335 1023.85 42.6394C1028.4 40.0454 1034.2 38.7484 1041.25 38.7484C1044.17 38.7484 1047.48 39.2348 1051.17 40.2075C1054.96 41.0722 1058.16 42.4233 1060.76 44.2607V39.559H1073.12V68.2555H1062.55C1061.57 62.6351 1059.08 58.2036 1055.07 54.9611C1051.06 51.7186 1046.12 50.0973 1040.27 50.0973C1037.56 50.0973 1035.07 50.7458 1032.79 52.0428C1030.62 53.3398 1029.54 55.5556 1029.54 58.69C1029.54 61.176 1030.4 63.1755 1032.14 64.6887C1033.87 66.0938 1036.26 67.2828 1039.29 68.2555C1042.33 69.2283 1045.69 70.3632 1049.38 71.6602C1054.91 73.4976 1059.79 75.6593 1064.01 78.1453C1068.35 80.6312 1071.77 83.6576 1074.26 87.2244C1076.75 90.6831 1078 94.9524 1078 100.032C1078 105.653 1076.59 110.3 1073.77 113.975C1070.95 117.65 1067.27 120.406 1062.71 122.244C1058.27 124.081 1053.5 125 1048.4 125Z" fill="url(#paint10_linear)"/>
<defs>
<linearGradient id="paint0_linear" x1="538.683" y1="-39.721" x2="538.683" y2="168.004" gradientUnits="userSpaceOnUse">
<stop stop-color="white"/>
<stop offset="1" stop-color="#F2F2F2"/>
</linearGradient>
<linearGradient id="paint1_linear" x1="538.683" y1="-39.721" x2="538.683" y2="168.004" gradientUnits="userSpaceOnUse">
<stop stop-color="white"/>
<stop offset="1" stop-color="#F2F2F2"/>
</linearGradient>
<linearGradient id="paint2_linear" x1="538.683" y1="-39.721" x2="538.683" y2="168.004" gradientUnits="userSpaceOnUse">
<stop stop-color="white"/>
<stop offset="1" stop-color="#F2F2F2"/>
</linearGradient>
<linearGradient id="paint3_linear" x1="538.683" y1="-39.721" x2="538.683" y2="168.004" gradientUnits="userSpaceOnUse">
<stop stop-color="white"/>
<stop offset="1" stop-color="#F2F2F2"/>
</linearGradient>
<linearGradient id="paint4_linear" x1="538.683" y1="-39.721" x2="538.683" y2="168.004" gradientUnits="userSpaceOnUse">
<stop stop-color="white"/>
<stop offset="1" stop-color="#F2F2F2"/>
</linearGradient>
<linearGradient id="paint5_linear" x1="538.683" y1="-39.721" x2="538.683" y2="168.004" gradientUnits="userSpaceOnUse">
<stop stop-color="white"/>
<stop offset="1" stop-color="#F2F2F2"/>
</linearGradient>
<linearGradient id="paint6_linear" x1="538.683" y1="-39.721" x2="538.683" y2="168.004" gradientUnits="userSpaceOnUse">
<stop stop-color="white"/>
<stop offset="1" stop-color="#F2F2F2"/>
</linearGradient>
<linearGradient id="paint7_linear" x1="538.683" y1="-39.721" x2="538.683" y2="168.004" gradientUnits="userSpaceOnUse">
<stop stop-color="white"/>
<stop offset="1" stop-color="#F2F2F2"/>
</linearGradient>
<linearGradient id="paint8_linear" x1="538.683" y1="-39.721" x2="538.683" y2="168.004" gradientUnits="userSpaceOnUse">
<stop stop-color="white"/>
<stop offset="1" stop-color="#F2F2F2"/>
</linearGradient>
<linearGradient id="paint9_linear" x1="538.683" y1="-39.721" x2="538.683" y2="168.004" gradientUnits="userSpaceOnUse">
<stop stop-color="white"/>
<stop offset="1" stop-color="#F2F2F2"/>
</linearGradient>
<linearGradient id="paint10_linear" x1="538.683" y1="-39.721" x2="538.683" y2="168.004" gradientUnits="userSpaceOnUse">
<stop stop-color="white"/>
<stop offset="1" stop-color="#F2F2F2"/>
</linearGradient>
</defs>
</svg>
